<?xml version="1.0" encoding="UTF-8" standalone="no"?><!DOCTYPE svg PUBLIC "-//W3C//DTD SVG 1.1//EN" "http://www.w3.org/Graphics/SVG/1.1/DTD/svg11.dtd"><svg width="100%" height="100%" viewBox="0 0 72346 72346" version="1.1" xmlns="http://www.w3.org/2000/svg" xmlns:xlink="http://www.w3.org/1999/xlink" xml:space="preserve" xmlns:serif="http://www.serif.com/" style="fill-rule:evenodd;clip-rule:evenodd;stroke-linecap:round;stroke-linejoin:round;stroke-miterlimit:10;"><g><circle cx="47682.4" cy="49568" r="13688.2" style="fill:#f29b1c;"/><path d="M46676.1,59240.4c7562.23,-0 13688.2,-6125.98 13688.2,-13688.2c0,-429.889 -19.534,-859.772 -58.624,-1279.9c683.935,1631.63 1064.98,3419.6 1064.98,5295.51c0,7562.23 -6125.98,13688.2 -13688.2,13688.2c-7132.33,-0 -12984.7,-5451.84 -13629.6,-12408.3c2071.3,4924.24 6946.73,8392.71 12623.2,8392.71l0.051,-0.011Z" style="fill:#ffc417;fill-rule:nonzero;"/><circle cx="47682.4" cy="49568" r="13688.2" style="fill:none;stroke:#441a36;stroke-width:586.24px;"/></g><g><circle cx="24663.4" cy="49568" r="13688.2" style="fill:#f29b1c;"/><path d="M25669.8,59240.4c-7562.23,-0 -13688.2,-6125.98 -13688.2,-13688.2c-0,-429.889 19.528,-859.772 58.618,-1279.9c-683.929,1631.63 -1064.97,3419.6 -1064.97,5295.51c-0,7562.23 6125.98,13688.2 13688.2,13688.2c7132.33,-0 12984.7,-5451.84 13629.6,-12408.3c-2071.3,4924.24 -6936.94,8392.71 -12623.2,8392.71l-0.051,-0.011Z" style="fill:#ffc417;fill-rule:nonzero;"/><circle cx="24663.4" cy="49568" r="13688.2" style="fill:none;stroke:#441a36;stroke-width:586.24px;"/></g><g><g><ellipse cx="55440.2" cy="39914.9" rx="4924.24" ry="5627.71" style="fill:#f1c6ad;"/><path d="M50525.5,39621.8c771.862,185.624 1592.57,293.113 2452.35,293.113c2940.87,0 5481.15,-1192 6663.37,-2921.34c-859.801,-1621.86 -2423.04,-2716.14 -4211,-2716.14c-2618.45,-0 -4767.93,2374.19 -4904.71,5344.37l-0.005,-0Z" style="fill:#e9b192;fill-rule:nonzero;"/><ellipse cx="55440.2" cy="39914.9" rx="4924.24" ry="5627.71" style="fill:none;stroke:#441a36;stroke-width:586.24px;"/></g></g><g><g><ellipse cx="17931.7" cy="39914.9" rx="4924.24" ry="5627.71" style="fill:#f1c6ad;"/><path d="M22846.1,39621.8c-771.84,185.624 -2237.39,1660.95 -3097.19,1758.66c-3761.58,459.198 -5520.24,-850.014 -6741.54,-1475.33c-986.795,-498.282 361.507,-2139.7 713.239,-2921.32c859.773,-1621.88 2423.03,-2716.16 4211,-2716.16c2637.99,9.776 4787.47,2383.96 4914.46,5354.15l0.023,-0Z" style="fill:#e9b192;fill-rule:nonzero;"/><ellipse cx="17931.7" cy="39914.9" rx="4924.24" ry="5627.71" style="fill:none;stroke:#441a36;stroke-width:586.24px;"/></g></g><path d="M36866.6,59573c-10669.2,-0 -19315.9,-8646.75 -19315.9,-19306.1l0,-13258.3l38622,-0l0,13248.6c0,10669.2 -8646.74,19315.9 -19306.1,19315.9l0.073,0l-0.017,-0.056Z" style="fill:#f1c6ad;fill-rule:nonzero;"/><path d="M32821.7,51699.8c0,-0 2652.19,437.937 3989.5,437.937c1348.29,-0 4100.33,-437.937 4100.33,-437.937c0,-0 -1421.79,1927.57 -3400.07,2385.14c-1388.78,321.218 -3051.82,-82.007 -4689.75,-2385.14Z" style="fill:#fff;stroke:#441a36;stroke-width:674.03px;stroke-miterlimit:1.5;"/><path d="M17726.5,41282.7c12085.9,4259.87 24425.9,-2647.76 27210.4,-10591c957.486,4885.18 6848.97,8480.61 11177.2,7083.48c0,-2530.52 -9.758,-3888.6 -9.758,-3888.6l-12076.1,-7181.18l-26545.9,7288.67c-0,0 9.781,6546.09 244.265,7288.67l-0.163,-0l-0.006,-0.028Z" style="fill:#e9b192;fill-rule:nonzero;"/><path d="M36798.1,57091.2c-10669.2,-0 -19306.1,-8646.75 -19306.1,-19306.2l0,2413.28c0,10669.2 8646.75,19306.1 19306.1,19306.1c10669.2,-0 19306.2,-8646.75 19306.2,-19306.2l0,-2413.27c0,10659.4 -8646.74,19306.2 -19306.2,19306.2l-0,0.051Z" style="fill:#e9b192;fill-rule:nonzero;"/><path d="M36798.1,59494.7c-10669.2,-0 -19315.9,-8646.75 -19315.9,-19306.2l-0,-13258.3l38622,0l-0,13248.6c-0,10669.2 -8646.75,19315.9 -19306.2,19315.9l0.113,-0Z" style="fill:none;fill-rule:nonzero;stroke:#441a36;stroke-width:586.24px;"/><path d="M58224.2,29216.5c-0,-11392.2 -10063.4,-20126.9 -21934.4,-20126.9c-11626.7,0 -20928,9203.66 -20928,20498.1c-1963.83,3849.51 -1387.39,5862.21 -928.194,6790.39c2364.43,4719.06 13912.9,4904.71 21592.4,625.305c3996.05,-2237.41 7386.36,-5705.87 8842.14,-7747.89c0,-0 5109.89,8715.12 12261.8,6272.53c2129.92,-742.531 3566.16,-4123.07 1094.26,-6311.64l0.006,0.045Z" style="fill:#ffc417;fill-rule:nonzero;"/><path d="M45376.7,28317.4c-1455.79,2051.77 -21641.3,14548 -29330.4,4455.27c-625.289,-820.711 -488.513,-1172.44 -674.154,-3185.12c-1963.83,3849.51 -1387.37,5862.21 -928.172,6790.39c2364.41,4719.06 13912.9,4904.71 21592.4,625.306c3996.07,-2237.41 7386.36,-5705.87 8842.14,-7747.89c0,-0 5109.87,8715.12 12261.8,6272.53c1465.55,-498.289 3097.21,-3048.34 1973.61,-5197.79c-2051.77,4679.98 -12154.3,918.391 -13737.1,-2012.7l-0.096,-0l0.012,0.011Z" style="fill:#f29b1c;fill-rule:nonzero;"/><path d="M58224.2,29216.5c-0,-11392.2 -10063.4,-20126.9 -21934.4,-20126.9c-11626.7,0 -20928,9203.66 -20928,20498.1c-1963.83,3849.51 -1387.39,5862.21 -928.194,6790.39c2364.43,4719.06 13912.9,4904.71 21592.4,625.305c3996.05,-2237.41 7386.36,-5705.87 8842.14,-7747.89c0,-0 5109.89,8715.12 12261.8,6272.53c2129.92,-742.531 3566.16,-4123.07 1094.26,-6311.64l0.006,0.045Z" style="fill:none;fill-rule:nonzero;stroke:#441a36;stroke-width:586.24px;"/><path d="M46871.4,24477.6c-400.597,1875.91 -1573.03,5002.42 -4914.48,8060.51" style="fill:none;fill-rule:nonzero;stroke:#441a36;stroke-width:586.24px;"/><g><g><g><ellipse cx="44712.1" cy="43393.1" rx="1612.1" ry="1358.08" style="fill:#441a36;"/><path d="M43158.6,40247c-0,-0 2364.43,-1709.79 4963.33,-9.759" style="fill:none;fill-rule:nonzero;stroke:#441a36;stroke-width:586.24px;"/></g><g><ellipse cx="28669.3" cy="43393.1" rx="1612.1" ry="1358.08" style="fill:#441a36;"/><path d="M30281.4,40686.6c-3028.81,-1758.66 -4229.93,154.244 -4885.18,-0" style="fill:none;fill-rule:nonzero;stroke:#441a36;stroke-width:586.24px;"/></g></g><path d="M34834.3,46519.5c400.596,556.906 1133.37,928.194 1963.83,928.194c840.262,0 1563.26,-371.288 1963.83,-928.194" style="fill:none;fill-rule:nonzero;stroke:#441a36;stroke-width:586.24px;"/></g></svg>